<svg width="28" height="27" viewBox="0 0 28 27" fill="none" xmlns="http://www.w3.org/2000/svg">
<path d="M24.3125 0.284912H3.6875C2.13477 0.284912 0.875 1.54468 0.875 3.09741V23.7224C0.875 25.2751 2.13477 26.5349 3.6875 26.5349H24.3125C25.8652 26.5349 27.125 25.2751 27.125 23.7224V3.09741C27.125 1.54468 25.8652 0.284912 24.3125 0.284912ZM17.123 22.7673C16.6309 22.8552 16.4492 22.5505 16.4492 22.2986C16.4492 21.9822 16.4609 20.365 16.4609 19.0583C16.4609 18.1443 16.1562 17.5642 15.7988 17.2595C17.9668 17.0193 20.252 16.7205 20.252 12.9763C20.252 11.9099 19.8711 11.3767 19.25 10.6912C19.3496 10.4392 19.6836 9.4021 19.1504 8.05444C18.3359 7.80249 16.4727 9.10327 16.4727 9.10327C15.6992 8.88647 14.8613 8.77515 14.0352 8.77515C13.209 8.77515 12.3711 8.88647 11.5977 9.10327C11.5977 9.10327 9.73438 7.80249 8.91992 8.05444C8.38672 9.39624 8.71484 10.4333 8.82031 10.6912C8.19922 11.3767 7.90625 11.9099 7.90625 12.9763C7.90625 16.7029 10.0918 17.0193 12.2598 17.2595C11.9785 17.5115 11.7266 17.9451 11.6387 18.5662C11.082 18.8181 9.6582 19.2517 8.80859 17.7517C8.27539 16.8259 7.31445 16.7498 7.31445 16.7498C6.36523 16.738 7.25 17.3474 7.25 17.3474C7.88281 17.6404 8.32812 18.7654 8.32812 18.7654C8.89648 20.5056 11.6152 19.9197 11.6152 19.9197C11.6152 20.7341 11.627 22.0583 11.627 22.2986C11.627 22.5505 11.4512 22.8552 10.9531 22.7673C7.08594 21.4724 4.37891 17.7927 4.37891 13.4919C4.37891 8.11304 8.49219 4.02905 13.8711 4.02905C19.25 4.02905 23.6094 8.11304 23.6094 13.4919C23.6152 17.7927 20.9902 21.4783 17.123 22.7673ZM11.375 19.1873C11.2637 19.2107 11.1582 19.1638 11.1465 19.0876C11.1348 18.9998 11.2109 18.9236 11.3223 18.9001C11.4336 18.8884 11.5391 18.9353 11.5508 19.0115C11.5684 19.0876 11.4922 19.1638 11.375 19.1873ZM10.8184 19.1345C10.8184 19.2107 10.7305 19.2751 10.6133 19.2751C10.4844 19.2869 10.3965 19.2224 10.3965 19.1345C10.3965 19.0583 10.4844 18.9939 10.6016 18.9939C10.7129 18.9822 10.8184 19.0466 10.8184 19.1345ZM10.0156 19.0701C9.99219 19.1462 9.875 19.1814 9.77539 19.1462C9.66406 19.1228 9.58789 19.0349 9.61133 18.9587C9.63477 18.8826 9.75195 18.8474 9.85156 18.8708C9.96875 18.906 10.0449 18.9939 10.0156 19.0701ZM9.29492 18.7537C9.24219 18.8181 9.13086 18.8064 9.04297 18.7185C8.95508 18.6423 8.93164 18.531 8.99023 18.4783C9.04297 18.4138 9.1543 18.4255 9.24219 18.5134C9.31836 18.5896 9.34766 18.7068 9.29492 18.7537ZM8.76172 18.2205C8.70898 18.2556 8.60937 18.2205 8.54492 18.1326C8.48047 18.0447 8.48047 17.9451 8.54492 17.9041C8.60937 17.8513 8.70898 17.8923 8.76172 17.9802C8.82617 18.0681 8.82617 18.1736 8.76172 18.2205ZM8.38086 17.6521C8.32813 17.7048 8.24023 17.6755 8.17578 17.6169C8.11133 17.5408 8.09961 17.4529 8.15234 17.4119C8.20508 17.3591 8.29297 17.3884 8.35742 17.447C8.42188 17.5232 8.43359 17.6111 8.38086 17.6521ZM7.98828 17.2185C7.96484 17.2712 7.88867 17.283 7.82422 17.2419C7.74805 17.2068 7.71289 17.1423 7.73633 17.0896C7.75977 17.0544 7.82422 17.0369 7.90039 17.0662C7.97656 17.1072 8.01172 17.1716 7.98828 17.2185Z" fill="#D1D5DB"/>
</svg>
