<svg width="28" height="27" viewBox="0 0 28 27" fill="none" xmlns="http://www.w3.org/2000/svg">
<rect width="28" height="27" fill="#1E1E1E"/>
<g id="majestic-dango-9330ff.netlify.app by html.to.design &#226;&#157;&#164;&#239;&#184;&#143; FREE version - 12/09/2023, 19:44:04 EEST">
<rect width="1920" height="3109.91" transform="translate(-387 -2983.5)" fill="#000300"/>
<g id="div">
<g id="div.mx-auto">
<g id="div_2">
<g id="div.flex">
<g id="SVG">
<path id="Vector" d="M14.0059 6.67163C10.2793 6.67163 7.27344 9.67749 7.27344 13.4041C7.27344 17.1306 10.2793 20.1365 14.0059 20.1365C17.7324 20.1365 20.7383 17.1306 20.7383 13.4041C20.7383 9.67749 17.7324 6.67163 14.0059 6.67163ZM14.0059 17.781C11.5977 17.781 9.62891 15.8181 9.62891 13.4041C9.62891 10.99 11.5918 9.0271 14.0059 9.0271C16.4199 9.0271 18.3828 10.99 18.3828 13.4041C18.3828 15.8181 16.4141 17.781 14.0059 17.781ZM22.584 6.39624C22.584 7.26929 21.8809 7.96655 21.0137 7.96655C20.1406 7.96655 19.4434 7.26343 19.4434 6.39624C19.4434 5.52905 20.1465 4.82593 21.0137 4.82593C21.8809 4.82593 22.584 5.52905 22.584 6.39624ZM27.043 7.98999C26.9434 5.88647 26.4629 4.02319 24.9219 2.48804C23.3867 0.952881 21.5234 0.472412 19.4199 0.366943C17.252 0.243896 10.7539 0.243896 8.58594 0.366943C6.48828 0.466553 4.625 0.947021 3.08398 2.48218C1.54297 4.01733 1.06836 5.88061 0.962891 7.98413C0.839844 10.1521 0.839844 16.6501 0.962891 18.8181C1.0625 20.9216 1.54297 22.7849 3.08398 24.3201C4.625 25.8552 6.48242 26.3357 8.58594 26.4412C10.7539 26.5642 17.252 26.5642 19.4199 26.4412C21.5234 26.3416 23.3867 25.8611 24.9219 24.3201C26.457 22.7849 26.9375 20.9216 27.043 18.8181C27.166 16.6501 27.166 10.158 27.043 7.98999ZM24.2422 21.1443C23.7852 22.2927 22.9004 23.1775 21.7461 23.6404C20.0176 24.3259 15.916 24.1677 14.0059 24.1677C12.0957 24.1677 7.98828 24.3201 6.26562 23.6404C5.11719 23.1833 4.23242 22.2986 3.76953 21.1443C3.08398 19.4158 3.24219 15.3142 3.24219 13.4041C3.24219 11.4939 3.08984 7.38647 3.76953 5.66382C4.22656 4.51538 5.11133 3.63061 6.26562 3.16772C7.99414 2.48218 12.0957 2.64038 14.0059 2.64038C15.916 2.64038 20.0234 2.48804 21.7461 3.16772C22.8945 3.62476 23.7793 4.50952 24.2422 5.66382C24.9277 7.39233 24.7695 11.4939 24.7695 13.4041C24.7695 15.3142 24.9277 19.4216 24.2422 21.1443Z" fill="#D1D5DB"/>
</g>
</g>
</g>
</g>
</g>
</g>
</svg>
