<svg width="28" height="27" viewBox="0 0 28 27" fill="none" xmlns="http://www.w3.org/2000/svg">
<rect width="28" height="27" fill="#1E1E1E"/>
<g id="majestic-dango-9330ff.netlify.app by html.to.design &#226;&#157;&#164;&#239;&#184;&#143; FREE version - 12/09/2023, 19:44:04 EEST">
<rect width="1920" height="3109.91" transform="translate(-357 -2983.5)" fill="#000300"/>
<g id="div">
<g id="div.mx-auto">
<g id="div_2">
<g id="div.flex">
<g id="SVG">
<path id="Vector" d="M24.3125 0.284912H3.6875C2.94158 0.284912 2.22621 0.581228 1.69876 1.10867C1.17132 1.63612 0.875 2.35149 0.875 3.09741L0.875 23.7224C0.875 24.4683 1.17132 25.1837 1.69876 25.7112C2.22621 26.2386 2.94158 26.5349 3.6875 26.5349H11.7295V17.6105H8.03809V13.4099H11.7295V10.2083C11.7295 6.56675 13.8975 4.55522 17.218 4.55522C18.8082 4.55522 20.4711 4.83882 20.4711 4.83882V8.41304H18.6389C16.8336 8.41304 16.2705 9.53335 16.2705 10.6824V13.4099H20.3006L19.6561 17.6105H16.2705V26.5349H24.3125C25.0584 26.5349 25.7738 26.2386 26.3012 25.7112C26.8287 25.1837 27.125 24.4683 27.125 23.7224V3.09741C27.125 2.35149 26.8287 1.63612 26.3012 1.10867C25.7738 0.581228 25.0584 0.284912 24.3125 0.284912Z" fill="#D1D5DB"/>
</g>
</g>
</g>
</g>
</g>
</g>
</svg>
